<svg width="232" height="55" viewBox="0 0 232 55" fill="none" xmlns="http://www.w3.org/2000/svg">
<path d="M24.5563 13.4805C25.2938 12.8577 25.3183 12.8504 27.6383 12.9092C27.8388 12.9876 28.0397 13.0661 28.2398 13.1445C29.13 13.4931 30.0792 14.546 30.775 15.9561C31.255 16.9289 31.5483 17.9083 32.7945 23.5342C33.0042 24.4588 33.2138 25.383 33.4234 26.3076C34.2596 29.9943 34.5964 31.7564 34.982 34.4717C35.1383 35.3572 35.2946 36.2424 35.4508 37.1279C35.8745 38.9271 36.0454 39.4969 36.1041 39.5547C36.2246 39.6725 36.3258 39.2852 36.9117 36.4639C37.0495 35.7999 37.188 35.1357 37.3258 34.4717C38.6108 26.9439 38.8481 26.0861 39.9215 25.0967C40.5795 24.4902 40.6331 24.4717 41.7047 24.4717C42.9426 24.4717 43.4123 24.6568 44.1441 25.4346C44.9625 26.3045 45.3293 27.2381 46.1461 30.5264C46.2786 31.0604 46.412 31.5939 46.5445 32.1279C47.2516 34.4888 47.6813 36.1092 47.9557 37.252C48.241 38.4407 48.5237 39.3066 48.6178 39.2754C48.7081 39.2444 49.1748 38.058 49.6549 36.6387C50.6105 33.815 51.0606 32.991 52.0387 32.2822C52.5887 31.8838 52.8264 31.8152 53.6383 31.8164C54.9081 31.8187 55.7754 32.2412 57.6295 33.7588C58.4411 34.4233 59.4959 35.1611 59.9732 35.3994C61.562 36.1928 63.8902 36.5954 67.7945 36.752C69.1 36.8045 70.3725 36.9408 70.7975 37.0742C71.6071 37.3283 72.3257 38.0397 72.3248 38.585C72.3238 39.1974 71.7573 39.9109 71.1217 40.1006C70.3315 40.3354 58.5535 40.2344 57.8727 39.9873C57.6149 39.8933 56.982 39.6946 56.4664 39.5459C55.9508 39.3971 55.2 39.1005 54.7994 38.8867C54.3986 38.6734 54.0064 38.5385 53.9283 38.5869C53.8494 38.636 53.3802 39.8979 52.8854 41.3906C51.6039 45.2574 50.6355 46.4802 48.8434 46.4961C46.5165 46.5165 45.4331 44.7338 43.4967 37.6992C43.0248 35.9856 42.7529 35.2321 42.6441 35.3408C42.5563 35.4286 42.1643 37.2121 41.774 39.3037C41.3835 41.3952 40.9289 43.7476 40.7633 44.5312C40.5977 45.3147 40.2088 47.257 39.9 48.8467C39.2428 52.2331 38.8042 53.3669 37.8961 54.0244C37.3816 54.3974 37.1238 54.4717 36.3492 54.4717C35.2393 54.4717 34.5091 54.1606 33.9078 53.4307C33.1072 52.4597 32.8388 51.4508 30.3014 39.9014C30.247 39.6543 30.1926 39.4063 30.1383 39.1592C29.9821 38.3262 29.8258 37.4922 29.6695 36.6592C29.4911 35.8908 29.3121 35.1228 29.1334 34.3545C28.7019 32.4983 27.8202 28.291 27.0299 24.3154C26.9305 23.8164 26.9059 23.7957 26.7506 24.0811C26.5684 24.4148 26.4965 24.7398 25.7516 28.6123C25.169 31.6413 23.3859 39.6256 22.9762 41.0381C22.5437 42.5278 22.0868 43.3221 21.36 43.8486C20.8039 44.2516 20.5789 44.3154 19.7086 44.3154C18.3615 44.3154 17.9059 44.068 16.5445 42.5967C16.3427 42.2189 16.14 41.8417 15.9381 41.4639C15.6054 40.8413 15.2079 39.9927 15.0543 39.5781C14.9612 39.3269 14.8681 39.0752 14.775 38.8242C14.5359 38.953 14.2963 39.0828 14.0572 39.2119C12.2578 40.1839 9.24867 40.7497 5.79063 40.7676C1.95094 40.7873 0.189145 40.0187 0.0191454 38.249C-0.0673555 37.3461 0.129366 36.9113 0.812114 36.4951C1.41832 36.1255 2.24026 36.1091 3.76036 36.4365C5.81442 36.879 7.90461 36.4301 9.23399 35.2598C9.61372 34.9256 10.4007 33.9786 10.984 33.1562C12.2082 31.4286 12.7183 30.9518 13.5953 30.7158C14.7071 30.4162 15.8254 30.8636 16.6441 31.9346C16.8895 32.2555 17.3868 33.257 17.7496 34.1592C18.1121 35.0613 18.5107 35.8211 18.6354 35.8477C18.8658 35.8959 19.023 35.3482 19.3453 33.3779C19.7053 31.1808 21.0424 24.2139 22.0133 19.4717C22.1695 18.7815 22.3248 18.0916 22.4811 17.4014C23.0001 15.1071 23.2989 14.5419 24.5563 13.4805ZM134.694 17.5332C134.784 17.5912 134.841 18.8946 134.826 23.8467V25.0889L140.295 25.2529L140.373 31.1123C139.448 31.1267 138.523 31.1409 137.599 31.1553C136.675 31.1693 135.75 31.1832 134.826 31.1973V37.4404C134.826 43.979 134.84 44.133 135.177 44.6289C136.033 45.8864 137.352 46.1808 139.238 45.5352C139.589 45.4149 139.939 45.295 140.29 45.1748C140.289 46.1385 140.29 47.1018 140.29 48.0654C140.289 49.0291 140.289 49.9924 140.289 50.9561C140.016 51.0725 139.744 51.1892 139.471 51.3057C137.042 52.3456 135.509 52.579 133.42 52.2275C130.322 51.706 128.689 50.5365 127.741 48.1582C127.459 47.4501 127.418 46.9446 127.375 43.5732C127.358 42.3105 127.342 41.0469 127.326 39.7842V31.1904H123.107V25.0967H127.319C127.333 24.0959 127.347 23.0949 127.361 22.0937C127.375 21.0932 127.39 20.0917 127.404 19.0908C127.638 19.0462 127.873 19.0014 128.107 18.957C128.494 18.8831 130.101 18.5117 131.676 18.1318C133.253 17.7516 134.611 17.482 134.694 17.5332ZM216.076 24.5752C221.276 24.5793 224.166 25.6597 227.256 28.7568C228.653 30.1565 228.916 30.5128 229.631 31.9717C230.647 34.045 230.908 35.0411 231.024 37.2842C231.306 42.7405 229.306 46.8846 225.014 49.7402C222.323 51.5311 218.317 52.4029 214.748 51.9736C210.589 51.4736 207.759 50.2082 205.429 47.8057C202.747 45.0395 201.545 41.9651 201.545 37.8799V36.1904C202.185 33.0456 203.053 31.1588 204.691 29.3545C204.892 29.1329 205.094 28.912 205.295 28.6904L206.388 27.7529L206.599 27.5596C208.816 25.5969 212.067 24.5719 216.076 24.5752ZM86.6715 12.8926C94.4685 12.8748 95.9266 12.9826 98.6871 13.7822C103.849 15.2782 107.523 19.3936 107.951 24.1592C107.977 24.6932 108.003 25.2268 108.029 25.7607C108.2 29.2625 107.044 32.1166 104.367 34.7959C103.324 35.8399 101.613 36.9711 101.076 36.9717C100.229 37.516 99.9824 37.7567 99.982 37.8584C99.9814 38.0712 103.227 42.4197 104.336 43.6904C106.224 45.8561 108.246 48.4204 109.078 49.7061C109.381 50.1748 109.684 50.6436 109.988 51.1123C108.506 51.1261 107.023 51.1399 105.541 51.1533C104.058 51.1671 102.575 51.1816 101.093 51.1953C100.403 50.2441 99.7117 49.2921 99.0211 48.3408C96.1524 44.3896 94.4922 42.1289 93.2828 40.5264C92.9388 40.0705 92.5952 39.615 92.2516 39.1592H87.1695V51.1963L79.7477 51.1123L79.6695 36.8154V24.3154C79.6177 20.5136 79.5652 16.711 79.5133 12.9092C81.8996 12.9039 84.2852 12.8982 86.6715 12.8926ZM196.807 30.917C196.811 34.118 196.827 39.9718 196.842 43.9248C196.851 46.3203 196.86 48.7168 196.869 51.1123L189.513 51.1963V25.0967H196.799C196.802 27.0369 196.804 28.9768 196.807 30.917ZM158.699 24.7393C161.582 24.5599 163.356 25.0781 164.894 26.5176C165.51 27.0941 166.034 27.7803 166.392 28.4775C166.576 28.8349 166.76 29.1925 166.943 29.5498C167.098 29.3726 167.253 29.1951 167.408 29.0176C167.663 28.7252 167.985 28.317 168.123 28.1113C168.533 27.4982 170.152 26.1985 171.119 25.7051C172.56 24.9692 173.736 24.7256 175.841 24.7256C177.186 24.7256 178.004 24.8064 178.732 25.0117C181.758 25.8646 184.099 28.1979 184.662 30.9219C184.774 31.4688 184.816 34.953 184.789 41.4248C184.775 44.6541 184.761 47.883 184.748 51.1123H177.248V43.0654C177.248 35.7672 177.221 34.9429 176.969 34.2051C176.584 33.0758 175.823 32.1386 174.906 31.667C174.233 31.3214 173.93 31.2686 172.637 31.2686C171.216 31.2686 171.108 31.2922 170.341 31.7842C169.064 32.6045 168.368 33.6836 168.008 35.4014C167.845 36.1842 167.795 38.1586 167.795 43.8076V51.1904H160.295V42.9121C160.295 33.7839 160.318 34.0292 159.294 32.6465C158.51 31.5881 157.8 31.2686 156.232 31.2686C155.057 31.2686 154.829 31.3168 154.262 31.6855C153.626 32.1 152.866 32.952 152.484 33.6797C151.856 34.8766 151.806 35.5551 151.776 43.4561C151.766 46.0078 151.757 48.5605 151.748 51.1123H144.123L144.201 39.3154C144.149 35.5655 144.097 31.8153 144.045 28.0654V25.0967C146.544 25.0998 149.045 25.1033 151.545 25.1064V28.7324C151.972 28.3065 152.4 27.88 152.828 27.4541C154.29 25.9975 156.016 25.0068 157.336 24.8662C157.593 24.8387 157.85 24.8114 158.107 24.7842L158.699 24.7393ZM120.216 25.0654C120.243 26.43 120.268 27.7949 120.295 29.1592V37.2842L120.216 51.1123H112.56L112.482 38.6904V24.9404L120.216 25.0654ZM215.929 31.2275C213.606 31.3469 212.13 32.1118 210.839 33.8652C209.104 36.223 209.289 40.8475 211.199 42.8467C213.016 44.7484 215.418 45.52 217.914 45.0049C219.837 44.6074 220.896 43.9071 221.883 42.3799C223.039 40.5912 223.38 38.4236 222.874 36.0918C222.601 34.8388 222.295 34.2741 221.349 33.2734C219.845 31.6822 218.316 31.105 215.929 31.2275ZM90.1275 19.6279C88.4741 19.6279 87.4584 19.6784 87.3375 19.8945L87.3258 19.9404V32.5967H90.0074C93.3224 32.5967 94.3023 32.4326 95.9498 31.6045C96.9895 31.0817 97.3851 30.7767 97.9801 30.0342C100.16 27.3152 99.7258 23.278 97.0133 21.0342C96.7137 20.8786 96.4144 20.7229 96.1148 20.5674C94.7283 19.8468 93.3335 19.6279 90.1275 19.6279ZM49.4352 8.17676C52.3831 8.14869 54.71 8.77104 57.2477 10.2666C58.7244 11.1369 59.8117 12.0643 61.0182 13.5078L61.5445 14.1592L61.9996 14.749C62.7392 15.7063 63.5475 17.4668 64.0016 19.1084C64.3925 20.5231 64.4233 20.842 64.357 25.7217C63.9461 28.4335 63.0531 31.4218 62.4703 32.0371C62.1911 32.3316 62.1778 32.3305 61.6695 31.9746C61.3854 31.7761 60.6969 31.0917 60.1383 30.4541C59.0705 29.2353 58.0273 28.5145 56.4566 27.9082C55.6996 27.6161 55.2113 27.5482 53.8102 27.54C52.2952 27.531 51.9642 27.5803 51.0201 27.9531C50.4311 28.1859 49.896 28.3427 49.8307 28.3027C49.7658 28.2617 49.5209 27.6896 49.2867 27.0303C49.0523 26.3703 48.7965 25.7001 48.7184 25.541C48.6709 25.4449 48.6232 25.3491 48.5758 25.2529C48.4065 24.9496 48.2373 24.6461 48.068 24.3428C46.9043 22.2566 45.8267 21.1524 44.11 20.2861C42.1123 19.2781 39.7735 18.9699 37.2496 19.3838C36.2131 19.5537 35.6758 19.5854 35.607 19.3154C35.7111 18.9511 35.8155 18.586 35.9195 18.2217L36.1481 17.3232C36.5334 15.8057 37.655 14.1029 39.4166 12.3623C41.1144 10.6845 42.2724 9.91363 44.2408 9.15332C45.9973 8.47494 47.4856 8.19519 49.4352 8.17676ZM190.524 13.96C191.795 12.8482 194.053 12.533 195.836 13.2178C196.667 13.5374 197.6 14.4412 198.057 15.3711C198.662 16.6017 198.681 18.3785 198.102 19.5488C196.628 22.5297 192.788 23.2066 190.398 20.9072C189.1 19.6585 188.57 17.6116 189.136 16.0342C189.398 15.3049 189.977 14.4394 190.524 13.96ZM116.078 11.6953C118.72 11.5063 120.763 12.7547 121.793 15.1885C122.131 15.9884 122.172 16.2726 122.103 17.3174C122.008 18.7611 121.552 19.7745 120.568 20.7285C119.486 21.7777 118.56 22.1723 116.991 22.252C115.429 22.3313 114.371 22.0587 113.308 21.3018C111.481 20.0015 110.6 17.1352 111.386 15.0518C112.057 13.2753 114.064 11.8399 116.078 11.6953ZM69.2037 13.9365C70.1314 13.9265 70.3208 13.9745 70.6852 14.3154C71.0286 14.6365 71.0868 14.8006 71.0162 15.2383C70.7418 16.9384 67.4143 18.1516 66.0875 17.0352C65.4229 16.4761 65.4453 15.9014 66.1637 15.1064C66.8696 14.3252 67.8409 13.9512 69.2037 13.9365ZM61.3834 8.12109C62.4562 6.24993 64.4146 5.49842 65.2965 6.61914C65.6765 7.10258 65.6794 7.34324 65.315 8.14355C64.7818 9.31377 63.0329 10.5536 61.9049 10.5615C60.8702 10.5687 60.6285 9.43729 61.3834 8.12109ZM35.2467 5.55859C36.1303 5.25103 37.3649 6.05521 38.4098 7.62011C39.2034 8.80836 39.2698 9.58343 38.6217 10.0937C38.1151 10.4922 37.7098 10.4251 36.7936 9.79199C34.3546 8.1067 33.6298 6.12233 35.2467 5.55859ZM54.8414 0.397459C55.5786 -0.12721 56.4021 0.0382474 56.8424 0.799802C57.2553 1.51387 56.6926 4.03683 55.7965 5.4873C54.9547 6.8504 53.811 7.255 53.3453 6.35449C52.6494 5.00886 53.5823 1.29402 54.8414 0.397459ZM42.6275 1.16211C42.852 0.412503 43.5005 -0.111985 44.0377 0.0205056C44.9203 0.238829 45.5972 1.19891 46.3111 3.24609C47.2158 5.84015 46.1881 7.54808 44.6168 6.06152C44.0381 5.51381 43.216 4.02363 42.7926 2.75586C42.5079 1.90336 42.481 1.65054 42.6275 1.16211Z" fill="url(#paint0_linear_2_233)"/>
<defs>
<linearGradient id="paint0_linear_2_233" x1="12.4997" y1="12.5" x2="27.4997" y2="78.5" gradientUnits="userSpaceOnUse">
<stop offset="0.222986" stop-color="#FD7E02"/>
<stop offset="0.487074" stop-color="#DD345B"/>
<stop offset="0.695259" stop-color="#A11DB2"/>
<stop offset="1" stop-color="#5816E7"/>
</linearGradient>
</defs>
</svg>
