<svg width="73" height="42" viewBox="0 0 73 42" fill="none" xmlns="http://www.w3.org/2000/svg">
<path d="M24.5563 0.5947C25.2938 -0.0281004 25.3183 -0.0354009 27.6383 0.0233991C27.8388 0.101799 28.0397 0.180299 28.2398 0.258699C29.13 0.607299 30.0792 1.6602 30.775 3.0703C31.255 4.0431 31.5483 5.0225 32.7945 10.6484C33.0042 11.573 33.2138 12.4972 33.4234 13.4218C34.2596 17.1085 34.5964 18.8706 34.982 21.5859C35.1383 22.4714 35.2946 23.3566 35.4508 24.2421C35.8745 26.0413 36.0454 26.6111 36.1041 26.6689C36.2246 26.7867 36.3258 26.3994 36.9117 23.5781C37.0495 22.9141 37.188 22.2499 37.3258 21.5859C38.6108 14.0581 38.8481 13.2003 39.9215 12.2109C40.5795 11.6044 40.6331 11.5859 41.7047 11.5859C42.9426 11.5859 43.4123 11.771 44.1441 12.5488C44.9625 13.4187 45.3293 14.3523 46.1461 17.6406C46.2786 18.1746 46.412 18.7081 46.5445 19.2421C47.2516 21.603 47.6813 23.2234 47.9557 24.3662C48.241 25.5549 48.5237 26.4208 48.6178 26.3896C48.7081 26.3586 49.1748 25.1722 49.6549 23.7529C50.6105 20.9292 51.0606 20.1052 52.0387 19.3964C52.5887 18.998 52.8264 18.9294 53.6383 18.9306C54.9081 18.9329 55.7754 19.3554 57.6295 20.873C58.4411 21.5375 59.4959 22.2753 59.9732 22.5136C61.562 23.307 63.8902 23.7096 67.7945 23.8662C69.1 23.9187 70.3725 24.055 70.7975 24.1884C71.6071 24.4425 72.3257 25.1539 72.3248 25.6992C72.3238 26.3116 71.7573 27.0251 71.1217 27.2148C70.3315 27.4496 58.5535 27.3486 57.8727 27.1015C57.6149 27.0075 56.982 26.8088 56.4664 26.6601C55.9508 26.5113 55.2 26.2147 54.7994 26.0009C54.3986 25.7876 54.0064 25.6527 53.9283 25.7011C53.8494 25.7502 53.3802 27.0121 52.8854 28.5048C51.6039 32.3716 50.6355 33.5944 48.8434 33.6103C46.5165 33.6307 45.4331 31.848 43.4967 24.8134C43.0248 23.0998 42.7529 22.3463 42.6441 22.455C42.5563 22.5428 42.1643 24.3263 41.774 26.4179C41.3835 28.5094 40.9289 30.8618 40.7633 31.6454C40.5977 32.4289 40.2088 34.3712 39.9 35.9609C39.2428 39.3473 38.8042 40.4811 37.8961 41.1386C37.3816 41.5116 37.1238 41.5859 36.3492 41.5859C35.2393 41.5859 34.5091 41.2748 33.9078 40.5449C33.1072 39.5739 32.8388 38.565 30.3014 27.0156C30.247 26.7685 30.1926 26.5205 30.1383 26.2734C29.9821 25.4404 29.8258 24.6064 29.6695 23.7734C29.4911 23.005 29.3121 22.237 29.1334 21.4687C28.7019 19.6125 27.8202 15.4052 27.0299 11.4296C26.9305 10.9306 26.9059 10.9099 26.7506 11.1953C26.5684 11.529 26.4965 11.854 25.7516 15.7265C25.169 18.7555 23.3859 26.7398 22.9762 28.1523C22.5437 29.642 22.0868 30.4363 21.36 30.9628C20.8039 31.3658 20.5789 31.4296 19.7086 31.4296C18.3615 31.4296 17.9059 31.1822 16.5445 29.7109C16.3427 29.3331 16.14 28.9559 15.9381 28.5781C15.6054 27.9555 15.2079 27.1069 15.0543 26.6923C14.9612 26.4411 14.8681 26.1894 14.775 25.9384C14.5359 26.0672 14.2963 26.197 14.0572 26.3261C12.2578 27.2981 9.24867 27.8639 5.79063 27.8818C1.95094 27.9015 0.189145 27.1329 0.0191454 25.3632C-0.0673555 24.4603 0.129366 24.0255 0.812114 23.6093C1.41832 23.2397 2.24026 23.2233 3.76036 23.5507C5.81442 23.9932 7.90461 23.5443 9.23399 22.374C9.61372 22.0398 10.4007 21.0928 10.984 20.2704C12.2082 18.5428 12.7183 18.066 13.5953 17.83C14.7071 17.5304 15.8254 17.9778 16.6441 19.0488C16.8895 19.3697 17.3868 20.3712 17.7496 21.2734C18.1121 22.1755 18.5107 22.9353 18.6354 22.9619C18.8658 23.0101 19.023 22.4624 19.3453 20.4921C19.7053 18.295 21.0424 11.3281 22.0133 6.5859C22.1695 5.8957 22.3248 5.2058 22.4811 4.5156C23.0001 2.2213 23.2989 1.6561 24.5563 0.5947Z" fill="url(#paint0_linear_6_2)"/>
<defs>
<linearGradient id="paint0_linear_6_2" x1="12.4997" y1="-0.385803" x2="27.4997" y2="65.6142" gradientUnits="userSpaceOnUse">
<stop offset="0.222986" stop-color="#FD7E02"/>
<stop offset="0.487074" stop-color="#DD345B"/>
<stop offset="0.695259" stop-color="#A11DB2"/>
<stop offset="1" stop-color="#5816E7"/>
</linearGradient>
</defs>
</svg>
